<mxfile host="app.diagrams.net" agent="Mozilla/5.0 (Windows NT 10.0; Win64; x64) AppleWebKit/537.36 (KHTML, like Gecko) Chrome/130.0.0.0 Safari/537.36 Edg/130.0.0.0" version="24.8.2" pages="2">
  <diagram name="Register" id="xf3yWFGnXnhXSD8Ht4JB">
    <mxGraphModel dx="1303" dy="706" grid="1" gridSize="10" guides="1" tooltips="1" connect="1" arrows="1" fold="1" page="1" pageScale="1" pageWidth="850" pageHeight="1100" math="0" shadow="0">
      <root>
        <mxCell id="0" />
        <mxCell id="1" parent="0" />
        <mxCell id="zRlt1M0rTp7SCm-eXGvN-3" style="edgeStyle=orthogonalEdgeStyle;rounded=0;orthogonalLoop=1;jettySize=auto;html=1;exitX=0.5;exitY=1;exitDx=0;exitDy=0;exitPerimeter=0;" edge="1" parent="1" source="zRlt1M0rTp7SCm-eXGvN-1" target="zRlt1M0rTp7SCm-eXGvN-2">
          <mxGeometry relative="1" as="geometry" />
        </mxCell>
        <mxCell id="zRlt1M0rTp7SCm-eXGvN-1" value="&lt;font style=&quot;font-size: 16px;&quot;&gt;เริ่มต้น&lt;/font&gt;" style="strokeWidth=2;html=1;shape=mxgraph.flowchart.start_1;whiteSpace=wrap;" vertex="1" parent="1">
          <mxGeometry x="375" y="30" width="100" height="60" as="geometry" />
        </mxCell>
        <mxCell id="zRlt1M0rTp7SCm-eXGvN-7" style="edgeStyle=orthogonalEdgeStyle;rounded=0;orthogonalLoop=1;jettySize=auto;html=1;exitX=0.5;exitY=1;exitDx=0;exitDy=0;entryX=0.5;entryY=0;entryDx=0;entryDy=0;" edge="1" parent="1" source="zRlt1M0rTp7SCm-eXGvN-2" target="zRlt1M0rTp7SCm-eXGvN-6">
          <mxGeometry relative="1" as="geometry" />
        </mxCell>
        <mxCell id="zRlt1M0rTp7SCm-eXGvN-2" value="&lt;font style=&quot;font-size: 16px;&quot;&gt;แสดงหน้าหลัก&lt;/font&gt;" style="shape=parallelogram;perimeter=parallelogramPerimeter;whiteSpace=wrap;html=1;fixedSize=1;" vertex="1" parent="1">
          <mxGeometry x="355" y="160" width="140" height="60" as="geometry" />
        </mxCell>
        <mxCell id="zRlt1M0rTp7SCm-eXGvN-11" style="edgeStyle=orthogonalEdgeStyle;rounded=0;orthogonalLoop=1;jettySize=auto;html=1;exitX=0.5;exitY=1;exitDx=0;exitDy=0;entryX=0.5;entryY=0;entryDx=0;entryDy=0;" edge="1" parent="1" source="zRlt1M0rTp7SCm-eXGvN-6" target="zRlt1M0rTp7SCm-eXGvN-10">
          <mxGeometry relative="1" as="geometry" />
        </mxCell>
        <mxCell id="zRlt1M0rTp7SCm-eXGvN-6" value="&lt;font style=&quot;font-size: 16px;&quot;&gt;สมัครสมาชิก&lt;/font&gt;" style="rounded=0;whiteSpace=wrap;html=1;" vertex="1" parent="1">
          <mxGeometry x="365" y="290" width="120" height="60" as="geometry" />
        </mxCell>
        <mxCell id="zRlt1M0rTp7SCm-eXGvN-15" style="edgeStyle=orthogonalEdgeStyle;rounded=0;orthogonalLoop=1;jettySize=auto;html=1;exitX=1;exitY=0.5;exitDx=0;exitDy=0;entryX=0;entryY=0.5;entryDx=0;entryDy=0;" edge="1" parent="1" source="zRlt1M0rTp7SCm-eXGvN-8" target="zRlt1M0rTp7SCm-eXGvN-14">
          <mxGeometry relative="1" as="geometry" />
        </mxCell>
        <mxCell id="zRlt1M0rTp7SCm-eXGvN-19" style="edgeStyle=orthogonalEdgeStyle;rounded=0;orthogonalLoop=1;jettySize=auto;html=1;exitX=0.5;exitY=1;exitDx=0;exitDy=0;entryX=0.5;entryY=0;entryDx=0;entryDy=0;" edge="1" parent="1" source="zRlt1M0rTp7SCm-eXGvN-8" target="zRlt1M0rTp7SCm-eXGvN-18">
          <mxGeometry relative="1" as="geometry" />
        </mxCell>
        <mxCell id="zRlt1M0rTp7SCm-eXGvN-8" value="&lt;font style=&quot;font-size: 16px;&quot;&gt;ตรวจสอบข้อมูลผู้ใช้งาน&lt;/font&gt;" style="rhombus;whiteSpace=wrap;html=1;" vertex="1" parent="1">
          <mxGeometry x="334" y="530" width="182.86" height="160" as="geometry" />
        </mxCell>
        <mxCell id="zRlt1M0rTp7SCm-eXGvN-12" style="edgeStyle=orthogonalEdgeStyle;rounded=0;orthogonalLoop=1;jettySize=auto;html=1;exitX=0.5;exitY=1;exitDx=0;exitDy=0;entryX=0.5;entryY=0;entryDx=0;entryDy=0;" edge="1" parent="1" source="zRlt1M0rTp7SCm-eXGvN-10" target="zRlt1M0rTp7SCm-eXGvN-8">
          <mxGeometry relative="1" as="geometry" />
        </mxCell>
        <mxCell id="zRlt1M0rTp7SCm-eXGvN-10" value="&lt;font style=&quot;font-size: 16px;&quot;&gt;แสดงหน้าสมัคร&lt;/font&gt;" style="shape=parallelogram;perimeter=parallelogramPerimeter;whiteSpace=wrap;html=1;fixedSize=1;" vertex="1" parent="1">
          <mxGeometry x="355" y="410" width="140" height="60" as="geometry" />
        </mxCell>
        <mxCell id="zRlt1M0rTp7SCm-eXGvN-16" style="edgeStyle=orthogonalEdgeStyle;rounded=0;orthogonalLoop=1;jettySize=auto;html=1;exitX=0.5;exitY=0;exitDx=0;exitDy=0;entryX=1;entryY=0.5;entryDx=0;entryDy=0;" edge="1" parent="1" source="zRlt1M0rTp7SCm-eXGvN-14" target="zRlt1M0rTp7SCm-eXGvN-10">
          <mxGeometry relative="1" as="geometry">
            <Array as="points">
              <mxPoint x="720" y="440" />
            </Array>
          </mxGeometry>
        </mxCell>
        <mxCell id="zRlt1M0rTp7SCm-eXGvN-14" value="&lt;font style=&quot;font-size: 16px;&quot;&gt;username หรือ password ซ้ำ&lt;/font&gt;" style="rounded=0;whiteSpace=wrap;html=1;" vertex="1" parent="1">
          <mxGeometry x="660" y="580" width="120" height="60" as="geometry" />
        </mxCell>
        <mxCell id="zRlt1M0rTp7SCm-eXGvN-23" style="edgeStyle=orthogonalEdgeStyle;rounded=0;orthogonalLoop=1;jettySize=auto;html=1;exitX=0.5;exitY=1;exitDx=0;exitDy=0;" edge="1" parent="1" source="zRlt1M0rTp7SCm-eXGvN-18" target="zRlt1M0rTp7SCm-eXGvN-22">
          <mxGeometry relative="1" as="geometry" />
        </mxCell>
        <mxCell id="zRlt1M0rTp7SCm-eXGvN-18" value="&lt;font style=&quot;font-size: 16px;&quot;&gt;แสดงหน้าเข้าสู่ระบบ&lt;/font&gt;" style="shape=parallelogram;perimeter=parallelogramPerimeter;whiteSpace=wrap;html=1;fixedSize=1;" vertex="1" parent="1">
          <mxGeometry x="330" y="750" width="190" height="60" as="geometry" />
        </mxCell>
        <mxCell id="zRlt1M0rTp7SCm-eXGvN-20" value="Yes" style="text;html=1;align=center;verticalAlign=middle;whiteSpace=wrap;rounded=0;" vertex="1" parent="1">
          <mxGeometry x="435" y="680" width="60" height="30" as="geometry" />
        </mxCell>
        <mxCell id="zRlt1M0rTp7SCm-eXGvN-21" value="No" style="text;html=1;align=center;verticalAlign=middle;whiteSpace=wrap;rounded=0;" vertex="1" parent="1">
          <mxGeometry x="510" y="570" width="60" height="30" as="geometry" />
        </mxCell>
        <mxCell id="zRlt1M0rTp7SCm-eXGvN-22" value="&lt;span style=&quot;font-size: 16px;&quot;&gt;สิ้นสุด&lt;/span&gt;" style="strokeWidth=2;html=1;shape=mxgraph.flowchart.start_1;whiteSpace=wrap;" vertex="1" parent="1">
          <mxGeometry x="375" y="870" width="100" height="60" as="geometry" />
        </mxCell>
      </root>
    </mxGraphModel>
  </diagram>
  <diagram id="J9vHpNEF5_CLtQienoFS" name="Login">
    <mxGraphModel dx="1042" dy="565" grid="1" gridSize="10" guides="1" tooltips="1" connect="1" arrows="1" fold="1" page="1" pageScale="1" pageWidth="850" pageHeight="1100" math="0" shadow="0">
      <root>
        <mxCell id="0" />
        <mxCell id="1" parent="0" />
        <mxCell id="NspQhRf5tQUUpZe4RhZA-1" style="edgeStyle=orthogonalEdgeStyle;rounded=0;orthogonalLoop=1;jettySize=auto;html=1;exitX=0.5;exitY=1;exitDx=0;exitDy=0;exitPerimeter=0;" edge="1" parent="1" source="NspQhRf5tQUUpZe4RhZA-2" target="NspQhRf5tQUUpZe4RhZA-4">
          <mxGeometry relative="1" as="geometry" />
        </mxCell>
        <mxCell id="NspQhRf5tQUUpZe4RhZA-2" value="&lt;font style=&quot;font-size: 16px;&quot;&gt;เริ่มต้น&lt;/font&gt;" style="strokeWidth=2;html=1;shape=mxgraph.flowchart.start_1;whiteSpace=wrap;" vertex="1" parent="1">
          <mxGeometry x="375" y="30" width="100" height="60" as="geometry" />
        </mxCell>
        <mxCell id="NspQhRf5tQUUpZe4RhZA-3" style="edgeStyle=orthogonalEdgeStyle;rounded=0;orthogonalLoop=1;jettySize=auto;html=1;exitX=0.5;exitY=1;exitDx=0;exitDy=0;entryX=0.5;entryY=0;entryDx=0;entryDy=0;" edge="1" parent="1" source="NspQhRf5tQUUpZe4RhZA-4" target="NspQhRf5tQUUpZe4RhZA-6">
          <mxGeometry relative="1" as="geometry" />
        </mxCell>
        <mxCell id="NspQhRf5tQUUpZe4RhZA-4" value="&lt;font style=&quot;font-size: 16px;&quot;&gt;แสดงหน้าหลัก&lt;/font&gt;" style="shape=parallelogram;perimeter=parallelogramPerimeter;whiteSpace=wrap;html=1;fixedSize=1;" vertex="1" parent="1">
          <mxGeometry x="355" y="160" width="140" height="60" as="geometry" />
        </mxCell>
        <mxCell id="NspQhRf5tQUUpZe4RhZA-5" style="edgeStyle=orthogonalEdgeStyle;rounded=0;orthogonalLoop=1;jettySize=auto;html=1;exitX=0.5;exitY=1;exitDx=0;exitDy=0;entryX=0.5;entryY=0;entryDx=0;entryDy=0;" edge="1" parent="1" source="NspQhRf5tQUUpZe4RhZA-6" target="NspQhRf5tQUUpZe4RhZA-11">
          <mxGeometry relative="1" as="geometry" />
        </mxCell>
        <mxCell id="NspQhRf5tQUUpZe4RhZA-6" value="&lt;span style=&quot;font-size: 16px;&quot;&gt;เข้าสู่ระบบ&lt;/span&gt;" style="rounded=0;whiteSpace=wrap;html=1;" vertex="1" parent="1">
          <mxGeometry x="365" y="290" width="120" height="60" as="geometry" />
        </mxCell>
        <mxCell id="NspQhRf5tQUUpZe4RhZA-7" style="edgeStyle=orthogonalEdgeStyle;rounded=0;orthogonalLoop=1;jettySize=auto;html=1;exitX=1;exitY=0.5;exitDx=0;exitDy=0;entryX=0;entryY=0.5;entryDx=0;entryDy=0;" edge="1" parent="1" source="NspQhRf5tQUUpZe4RhZA-9" target="NspQhRf5tQUUpZe4RhZA-13">
          <mxGeometry relative="1" as="geometry" />
        </mxCell>
        <mxCell id="NspQhRf5tQUUpZe4RhZA-8" style="edgeStyle=orthogonalEdgeStyle;rounded=0;orthogonalLoop=1;jettySize=auto;html=1;exitX=0.5;exitY=1;exitDx=0;exitDy=0;entryX=0.5;entryY=0;entryDx=0;entryDy=0;" edge="1" parent="1" source="NspQhRf5tQUUpZe4RhZA-9" target="NspQhRf5tQUUpZe4RhZA-15">
          <mxGeometry relative="1" as="geometry" />
        </mxCell>
        <mxCell id="NspQhRf5tQUUpZe4RhZA-9" value="&lt;font style=&quot;font-size: 16px;&quot;&gt;ตรวจสอบข้อมูลผู้ใช้งาน&lt;/font&gt;" style="rhombus;whiteSpace=wrap;html=1;" vertex="1" parent="1">
          <mxGeometry x="334" y="530" width="182.86" height="160" as="geometry" />
        </mxCell>
        <mxCell id="NspQhRf5tQUUpZe4RhZA-10" style="edgeStyle=orthogonalEdgeStyle;rounded=0;orthogonalLoop=1;jettySize=auto;html=1;exitX=0.5;exitY=1;exitDx=0;exitDy=0;entryX=0.5;entryY=0;entryDx=0;entryDy=0;" edge="1" parent="1" source="NspQhRf5tQUUpZe4RhZA-11" target="NspQhRf5tQUUpZe4RhZA-9">
          <mxGeometry relative="1" as="geometry" />
        </mxCell>
        <mxCell id="NspQhRf5tQUUpZe4RhZA-11" value="&lt;font style=&quot;font-size: 16px;&quot;&gt;แสดงหน้าเข้าสู่ระบบ&lt;/font&gt;" style="shape=parallelogram;perimeter=parallelogramPerimeter;whiteSpace=wrap;html=1;fixedSize=1;" vertex="1" parent="1">
          <mxGeometry x="340" y="410" width="170" height="60" as="geometry" />
        </mxCell>
        <mxCell id="NspQhRf5tQUUpZe4RhZA-12" style="edgeStyle=orthogonalEdgeStyle;rounded=0;orthogonalLoop=1;jettySize=auto;html=1;exitX=0.5;exitY=0;exitDx=0;exitDy=0;entryX=1;entryY=0.5;entryDx=0;entryDy=0;" edge="1" parent="1" source="NspQhRf5tQUUpZe4RhZA-13" target="NspQhRf5tQUUpZe4RhZA-11">
          <mxGeometry relative="1" as="geometry">
            <Array as="points">
              <mxPoint x="720" y="440" />
            </Array>
          </mxGeometry>
        </mxCell>
        <mxCell id="NspQhRf5tQUUpZe4RhZA-13" value="&lt;font style=&quot;font-size: 16px;&quot;&gt;username หรือ password ผิด&lt;/font&gt;" style="rounded=0;whiteSpace=wrap;html=1;" vertex="1" parent="1">
          <mxGeometry x="660" y="580" width="120" height="60" as="geometry" />
        </mxCell>
        <mxCell id="NspQhRf5tQUUpZe4RhZA-14" style="edgeStyle=orthogonalEdgeStyle;rounded=0;orthogonalLoop=1;jettySize=auto;html=1;exitX=0.5;exitY=1;exitDx=0;exitDy=0;" edge="1" parent="1" source="NspQhRf5tQUUpZe4RhZA-15" target="NspQhRf5tQUUpZe4RhZA-18">
          <mxGeometry relative="1" as="geometry" />
        </mxCell>
        <mxCell id="NspQhRf5tQUUpZe4RhZA-15" value="&lt;font style=&quot;font-size: 16px;&quot;&gt;แสดงหน้าหลัก&lt;/font&gt;" style="shape=parallelogram;perimeter=parallelogramPerimeter;whiteSpace=wrap;html=1;fixedSize=1;" vertex="1" parent="1">
          <mxGeometry x="330" y="750" width="190" height="60" as="geometry" />
        </mxCell>
        <mxCell id="NspQhRf5tQUUpZe4RhZA-16" value="Yes" style="text;html=1;align=center;verticalAlign=middle;whiteSpace=wrap;rounded=0;" vertex="1" parent="1">
          <mxGeometry x="435" y="680" width="60" height="30" as="geometry" />
        </mxCell>
        <mxCell id="NspQhRf5tQUUpZe4RhZA-17" value="No" style="text;html=1;align=center;verticalAlign=middle;whiteSpace=wrap;rounded=0;" vertex="1" parent="1">
          <mxGeometry x="510" y="570" width="60" height="30" as="geometry" />
        </mxCell>
        <mxCell id="NspQhRf5tQUUpZe4RhZA-18" value="&lt;span style=&quot;font-size: 16px;&quot;&gt;สิ้นสุด&lt;/span&gt;" style="strokeWidth=2;html=1;shape=mxgraph.flowchart.start_1;whiteSpace=wrap;" vertex="1" parent="1">
          <mxGeometry x="375" y="870" width="100" height="60" as="geometry" />
        </mxCell>
      </root>
    </mxGraphModel>
  </diagram>
</mxfile>
